<?xml version="1.0" encoding="UTF-8" standalone="no"?>
<svg width="52px" height="52px" viewBox="0 0 52 52" version="1.1" xmlns="http://www.w3.org/2000/svg" xmlns:xlink="http://www.w3.org/1999/xlink" xmlns:sketch="http://www.bohemiancoding.com/sketch/ns">
    <g stroke="none" stroke-width="1" fill="none" fill-rule="evenodd" sketch:type="MSPage">
        <g id="Group" sketch:type="MSLayerGroup">
            <circle id="Oval" opacity="0.5" fill="#FFFFFF" sketch:type="MSShapeGroup" cx="26" cy="26" r="26"></circle>
            <path d="M0,26 C0,40.337 11.663,52 26,52 C40.337,52 52,40.337 52,26 C52,11.663 40.337,0 26,0 C11.663,0 0,11.663 0,26 L0,26 Z M4.1,26 C4.1,12.81 12.81,4.1 26,4.1 C39.19,4.1 47.9,12.81 47.9,26 C47.9,39.19 39.19,47.9 26,47.9 C12.81,47.9 4.1,39.19 4.1,26 L4.1,26 Z" id="Shape" fill="#288E05" sketch:type="MSShapeGroup"></path>
            <path d="M20.258,24.419 L26.047,32.157 C26.613,32.955 26.418,34.054 25.609,34.613 C24.801,35.172 23.686,34.979 23.119,34.182 L17.33,26.444 C16.763,25.646 16.959,24.547 17.768,23.988 C18.576,23.429 19.691,23.622 20.258,24.419 Z" id="Shape" fill="#0E8A05" sketch:type="MSShapeGroup"></path>
            <path d="M36.221,17.331 C37.03,17.889 37.227,18.989 36.661,19.787 L26.414,34.235 C25.848,35.033 24.733,35.227 23.924,34.669 C23.115,34.111 22.918,33.011 23.484,32.213 L33.732,17.765 C34.298,16.967 35.412,16.773 36.221,17.331 L36.221,17.331 Z" id="Shape" fill="#0E8A05" sketch:type="MSShapeGroup"></path>
        </g>
    </g>
</svg>